<svg xmlns="http://www.w3.org/2000/svg" xmlns:xlink="http://www.w3.org/1999/xlink" version="1.1" x="0px" y="0px" viewBox="0 0 200 250" style="enable-background:new 0 0 200 200;" xml:space="preserve"><g><path d="M162.697,87.104c-0.84-4.117-2.096-8.162-3.73-12.022c-1.605-3.795-3.59-7.453-5.9-10.874   c-2.293-3.393-4.922-6.578-7.813-9.467c-2.9-2.901-6.086-5.53-9.469-7.815c-3.424-2.313-7.082-4.299-10.873-5.901   c-3.867-1.637-7.91-2.891-12.02-3.731c-8.436-1.727-17.354-1.727-25.789,0c-4.105,0.84-8.148,2.094-12.016,3.731   c-3.793,1.602-7.451,3.588-10.875,5.901c-1.83,1.236-2.311,3.723-1.074,5.555c1.238,1.826,3.719,2.311,5.555,1.074   c2.994-2.024,6.193-3.76,9.508-5.162c3.383-1.43,6.918-2.527,10.506-3.262c7.383-1.508,15.201-1.508,22.584,0   c3.59,0.734,7.123,1.832,10.506,3.262c3.314,1.402,6.514,3.139,9.51,5.162c2.961,2,5.75,4.303,8.291,6.844   c2.531,2.527,4.832,5.317,6.84,8.289c2.021,2.99,3.758,6.19,5.162,9.51c1.428,3.375,2.525,6.909,3.262,10.508   c0.756,3.686,1.139,7.485,1.139,11.29c0,3.803-0.383,7.602-1.139,11.292c-0.736,3.598-1.834,7.131-3.262,10.506   c-1.402,3.313-3.139,6.514-5.162,9.512c-1.236,1.83-0.754,4.317,1.076,5.553c0.686,0.465,1.465,0.686,2.234,0.686   c1.285,0,2.547-0.617,3.318-1.762c2.314-3.426,4.299-7.084,5.9-10.872c1.635-3.86,2.889-7.903,3.73-12.02   c0.865-4.215,1.303-8.553,1.303-12.895C164,95.653,163.563,91.315,162.697,87.104z"/><path d="M131.305,146.437c-2.992,2.022-6.191,3.76-9.51,5.164c-3.371,1.426-6.906,2.524-10.504,3.262   c-7.383,1.508-15.203,1.508-22.582,0c-3.598-0.738-7.133-1.836-10.506-3.262c-3.318-1.404-6.518-3.143-9.512-5.164   c-2.965-2.002-5.754-4.305-8.291-6.84c-2.535-2.535-4.836-5.324-6.84-8.289c-2.023-2.998-3.76-6.2-5.162-9.516   c-1.428-3.371-2.525-6.905-3.262-10.502C44.383,107.597,44,103.798,44,99.997c0-3.803,0.383-7.602,1.137-11.292   c0.736-3.598,1.834-7.131,3.262-10.506c1.404-3.32,3.141-6.52,5.162-9.51c1.236-1.832,0.756-4.319-1.074-5.555   c-1.836-1.236-4.318-0.752-5.555,1.074c-2.311,3.42-4.295,7.078-5.9,10.874c-1.635,3.86-2.891,7.905-3.73,12.02   C36.438,91.319,36,95.657,36,99.997c0,4.338,0.438,8.676,1.301,12.893c0.842,4.119,2.096,8.162,3.73,12.018   c1.602,3.791,3.586,7.45,5.9,10.877c2.289,3.387,4.918,6.573,7.813,9.467c2.896,2.897,6.082,5.526,9.469,7.813   c3.42,2.311,7.078,4.297,10.875,5.903c3.857,1.633,7.9,2.887,12.018,3.731C91.322,163.562,95.66,164,100,164   c4.338,0,8.676-0.438,12.895-1.301c4.117-0.844,8.16-2.098,12.018-3.731c3.795-1.606,7.453-3.592,10.873-5.903   c1.83-1.236,2.311-3.723,1.074-5.555C135.623,145.685,133.141,145.202,131.305,146.437z"/><path d="M74.17,118.662c0.781,0.781,1.805,1.172,2.828,1.172s2.047-0.391,2.828-1.172c1.563-1.563,1.563-4.094,0-5.657   L66.818,99.997l13.008-13.008c1.563-1.563,1.563-4.094,0-5.657s-4.094-1.563-5.656,0L58.334,97.169   c-1.563,1.563-1.563,4.094,0,5.657L74.17,118.662z"/><path d="M125.828,81.332c-1.563-1.563-4.094-1.563-5.656,0s-1.563,4.094,0,5.657l13.008,13.008l-13.008,13.008   c-1.563,1.563-1.563,4.094,0,5.657c0.781,0.781,1.805,1.172,2.828,1.172s2.047-0.391,2.828-1.172l15.836-15.837   c1.563-1.563,1.563-4.094,0-5.657L125.828,81.332z"/><path d="M90.619,127.989c0.422,0.141,0.85,0.209,1.271,0.209c1.672,0,3.232-1.059,3.793-2.731l16.219-48.399   c0.701-2.096-0.428-4.362-2.521-5.065c-2.094-0.695-4.361,0.428-5.064,2.522l-16.219,48.399   C87.396,125.02,88.525,127.285,90.619,127.989z"/></g><text x="0" y="215" fill="#000000" font-size="5px" font-weight="bold" font-family="'Helvetica Neue', Helvetica, Arial-Unicode, Arial, Sans-serif">Created by Symbolon</text><text x="0" y="220" fill="#000000" font-size="5px" font-weight="bold" font-family="'Helvetica Neue', Helvetica, Arial-Unicode, Arial, Sans-serif">from the Noun Project</text></svg>