<svg xmlns="http://www.w3.org/2000/svg" xmlns:xlink="http://www.w3.org/1999/xlink" version="1.1" x="0px" y="0px" viewBox="0 0 200 200" style="enable-background:new 0 0 200 200;" xml:space="preserve"><g><path d="M151.5,133.499H55.642c-2.008,0-3.642-1.641-3.642-3.657V79.36c0-1.933-1.567-3.5-3.5-3.5s-3.5,1.567-3.5,3.5v50.481   c0,5.876,4.774,10.657,10.642,10.657H151.5c1.933,0,3.5-1.567,3.5-3.5S153.433,133.499,151.5,133.499z"/><path d="M144.357,59.501H48.5c-1.933,0-3.5,1.567-3.5,3.5s1.567,3.5,3.5,3.5h95.857c2.009,0,3.643,1.641,3.643,3.657v50.482   c0,1.933,1.567,3.5,3.5,3.5s3.5-1.567,3.5-3.5V70.158C155,64.282,150.226,59.501,144.357,59.501z"/><path d="M98.904,117.501c0.862,0,1.726-0.316,2.4-0.953l36.76-34.641c1.407-1.325,1.473-3.54,0.146-4.947   c-1.325-1.405-3.541-1.475-4.947-0.146l-34.284,32.308L66.813,76.888c-1.366-1.368-3.582-1.369-4.95-0.005   c-1.368,1.365-1.371,3.582-0.005,4.95l34.568,34.641C97.109,117.157,98.007,117.501,98.904,117.501z"/></g></svg>
