<?xml version="1.0" encoding="utf-8"?>
<!-- Generator: Adobe Illustrator 23.0.3, SVG Export Plug-In . SVG Version: 6.00 Build 0)  -->
<svg version="1.1" id="Layer_1" xmlns="http://www.w3.org/2000/svg" xmlns:xlink="http://www.w3.org/1999/xlink" x="0px" y="0px"
	 viewBox="0 0 110 81" style="enable-background:new 0 0 110 81;" xml:space="preserve">
<g>
	<path d="M106.5,74H10.6c-2,0-3.6-1.6-3.6-3.7V19.9c0-1.9-1.6-3.5-3.5-3.5S0,17.9,0,19.9v50.5C0,76.2,4.8,81,10.6,81h95.9
		c1.9,0,3.5-1.6,3.5-3.5S108.4,74,106.5,74z"/>
	<path d="M99.4,0H3.5C1.6,0,0,1.6,0,3.5S1.6,7,3.5,7h95.9c2,0,3.6,1.6,3.6,3.7v50.5c0,1.9,1.6,3.5,3.5,3.5s3.5-1.6,3.5-3.5V10.7
		C110,4.8,105.2,0,99.4,0z"/>
	<path d="M53.9,58c0.9,0,1.7-0.3,2.4-1l36.8-34.6c1.4-1.3,1.5-3.5,0.1-4.9c-1.3-1.4-3.5-1.5-4.9-0.1L54,49.6L21.8,17.4
		c-1.4-1.4-3.6-1.4-5,0c-1.4,1.4-1.4,3.6,0,4.9L51.4,57C52.1,57.7,53,58,53.9,58z"/>
</g>
</svg>
