<svg xmlns="http://www.w3.org/2000/svg" xmlns:xlink="http://www.w3.org/1999/xlink" version="1.1" x="0px" y="0px" viewBox="0 0 128 160" style="enable-background:new 0 0 128 128;" xml:space="preserve"><g><path d="M109.903,43.212c-1.16-7.222-7.311-12.464-14.624-12.464H84.093c-1.104,0-2,0.896-2,2s0.896,2,2,2h11.186   c5.339,0,9.828,3.826,10.675,9.099l6.442,40.078c0.375,2.333-0.289,4.702-1.821,6.5c-1.531,1.797-3.763,2.827-6.123,2.827h-6.979   c-1.104,0-2,0.896-2,2s0.896,2,2,2h6.979c3.534,0,6.875-1.543,9.168-4.232c2.293-2.691,3.287-6.237,2.726-9.729L109.903,43.212z"/><path d="M85.2,77.082c-0.037-0.05-0.077-0.099-0.119-0.145c-2.28-2.523-5.537-3.97-8.936-3.97H51.856   c-3.399,0-6.656,1.447-8.937,3.97c-0.048,0.054-0.094,0.11-0.137,0.169l-6.405,8.859c-0.646,0.896-0.446,2.146,0.449,2.793   c0.354,0.256,0.764,0.379,1.17,0.379c0.62,0,1.231-0.287,1.623-0.828l6.338-8.767c1.519-1.638,3.662-2.575,5.898-2.575h24.289   c2.24,0,4.389,0.941,5.908,2.586l6.346,8.502c0.66,0.886,1.912,1.069,2.799,0.406c0.885-0.66,1.067-1.913,0.406-2.799L85.2,77.082z   "/><path d="M99.473,56.163c0-5.12-4.249-9.286-9.472-9.286c-5.222,0-9.471,4.166-9.471,9.286s4.249,9.286,9.471,9.286   C95.224,65.449,99.473,61.283,99.473,56.163z M84.531,56.163c0-2.915,2.454-5.286,5.471-5.286c3.018,0,5.472,2.371,5.472,5.286   s-2.454,5.286-5.472,5.286C86.985,61.449,84.531,59.078,84.531,56.163z"/><path d="M37.999,65.449c1.104,0,2-0.896,2-2v-5.286h5.471c1.104,0,2-0.896,2-2s-0.896-2-2-2h-5.471v-5.286c0-1.104-0.896-2-2-2   s-2,0.896-2,2v5.286h-5.471c-1.104,0-2,0.896-2,2s0.896,2,2,2h5.471v5.286C35.999,64.554,36.894,65.449,37.999,65.449z"/><path d="M30.528,93.252h-6.979c-2.36,0-4.593-1.03-6.124-2.827c-1.532-1.798-2.196-4.167-1.821-6.5l6.442-40.078   c0.848-5.272,5.337-9.099,10.675-9.099h11.186c1.104,0,2-0.896,2-2s-0.896-2-2-2H32.721c-7.313,0-13.463,5.242-14.624,12.464   L11.655,83.29c-0.562,3.491,0.433,7.037,2.726,9.729c2.293,2.69,5.635,4.233,9.169,4.233h6.979c1.104,0,2-0.896,2-2   S31.632,93.252,30.528,93.252z"/><path d="M64,30.748c-1.104,0-2,0.896-2,2v6.039H50.931c-1.104,0-2,0.896-2,2s0.896,2,2,2H77.07c1.104,0,2-0.896,2-2s-0.896-2-2-2   H66v-6.039C66,31.644,65.105,30.748,64,30.748z"/></g><text x="0" y="143" fill="#000000" font-size="5px" font-weight="bold" font-family="'Helvetica Neue', Helvetica, Arial-Unicode, Arial, Sans-serif">Created by Symbolon</text><text x="0" y="148" fill="#000000" font-size="5px" font-weight="bold" font-family="'Helvetica Neue', Helvetica, Arial-Unicode, Arial, Sans-serif">from the Noun Project</text></svg>