<svg xmlns="http://www.w3.org/2000/svg" xmlns:xlink="http://www.w3.org/1999/xlink" version="1.1" x="0px" y="0px" viewBox="0 0 195 195" style="enable-background:new 0 0 195 195;" xml:space="preserve"><g><path d="M144.523,76.025l-29.999-29.999c-0.163-0.163-0.343-0.309-0.535-0.438c-0.084-0.056-0.176-0.095-0.264-0.143   c-0.112-0.061-0.22-0.129-0.338-0.178c-0.115-0.047-0.234-0.075-0.353-0.109c-0.1-0.03-0.197-0.068-0.301-0.089   c-0.452-0.09-0.918-0.09-1.37,0c-0.104,0.021-0.2,0.059-0.301,0.089c-0.118,0.035-0.238,0.062-0.353,0.109   c-0.119,0.049-0.227,0.117-0.338,0.178c-0.088,0.048-0.18,0.087-0.264,0.143c-0.384,0.256-0.714,0.586-0.97,0.97   c-0.058,0.087-0.099,0.182-0.148,0.273c-0.06,0.109-0.125,0.213-0.173,0.329c-0.048,0.117-0.076,0.238-0.111,0.358   c-0.029,0.099-0.067,0.193-0.088,0.295c-0.045,0.226-0.069,0.456-0.069,0.685v30c0,1.933,1.567,3.5,3.5,3.5h14   c1.933,0,3.5-1.567,3.5-3.5s-1.567-3.5-3.5-3.5h-10.5V56.949l23,23.001v64.407c0,2.009-1.641,3.643-3.656,3.643H72.194   c-1.933,0-3.5,1.567-3.5,3.5s1.567,3.5,3.5,3.5h62.698c5.876,0,10.656-4.774,10.656-10.643V78.5   C145.548,77.571,145.179,76.682,144.523,76.025z"/><path d="M99.548,48.5c0-1.933-1.567-3.5-3.5-3.5h-30.94c-5.876,0-10.656,4.774-10.656,10.643V151.5c0,1.933,1.567,3.5,3.5,3.5   s3.5-1.567,3.5-3.5V55.643c0-2.009,1.641-3.643,3.656-3.643h30.94C97.981,52,99.548,50.433,99.548,48.5z"/><path d="M72.194,82h23.854c1.933,0,3.5-1.567,3.5-3.5s-1.567-3.5-3.5-3.5H72.194c-1.933,0-3.5,1.567-3.5,3.5S70.261,82,72.194,82z"/><path d="M126.048,118H72.194c-1.933,0-3.5,1.567-3.5,3.5s1.567,3.5,3.5,3.5h53.854c1.933,0,3.5-1.567,3.5-3.5   S127.981,118,126.048,118z"/><path d="M126.048,96.5H72.194c-1.933,0-3.5,1.567-3.5,3.5s1.567,3.5,3.5,3.5h53.854c1.933,0,3.5-1.567,3.5-3.5   S127.981,96.5,126.048,96.5z"/></g></svg>
