<svg xmlns="http://www.w3.org/2000/svg" xmlns:xlink="http://www.w3.org/1999/xlink" version="1.1" x="0px" y="0px" viewBox="0 0 52 65" style="enable-background:new 0 0 52 52;" xml:space="preserve"><style type="text/css">
	.st0{stroke:#2A3D4F;stroke-width:2;stroke-miterlimit:10;}
	.st1{stroke:#FCCB4F;stroke-width:2;stroke-miterlimit:10;}
</style><g><g><path d="M39,50H13c-2.2,0-4-1.8-4-4V6c0-2.2,1.8-4,4-4h22.4L43,9.5V46C43,48.2,41.2,50,39,50z M13,4c-1.1,0-2,0.9-2,2v40    c0,1.1,0.9,2,2,2h26c1.1,0,2-0.9,2-2V10.3L34.5,4H13z"/></g><g><path d="M42,11h-7c-0.6,0-1-0.4-1-1V3c0-0.4,0.2-0.8,0.6-0.9C35,1.9,35.4,2,35.7,2.3l7,7c0.3,0.3,0.4,0.7,0.2,1.1S42.4,11,42,11z     M36,9h3.6L36,5.4V9z"/></g><g><path d="M26,20c-2.2,0-4-1.8-4-4s1.8-4,4-4s4,1.8,4,4S28.2,20,26,20z M26,14c-1.1,0-2,0.9-2,2s0.9,2,2,2s2-0.9,2-2S27.1,14,26,14z    "/></g><g><path d="M33,27H19c-0.6,0-1-0.4-1-1c0-4.4,3.6-8,8-8s8,3.6,8,8C34,26.6,33.6,27,33,27z M20.1,25h11.8c-0.5-2.8-2.9-5-5.9-5    S20.6,22.2,20.1,25z"/></g><g><path d="M36,45H16c-0.6,0-1-0.4-1-1s0.4-1,1-1h20c0.6,0,1,0.4,1,1S36.6,45,36,45z"/></g><g><path d="M36,39H16c-0.6,0-1-0.4-1-1s0.4-1,1-1h20c0.6,0,1,0.4,1,1S36.6,39,36,39z"/></g><g><path d="M31,33H21c-0.6,0-1-0.4-1-1c0-0.6,0.4-1,1-1h10c0.6,0,1,0.4,1,1C32,32.6,31.6,33,31,33z"/></g></g><text x="0" y="67" fill="#000000" font-size="5px" font-weight="bold" font-family="'Helvetica Neue', Helvetica, Arial-Unicode, Arial, Sans-serif">Created by Graphic Tigers</text><text x="0" y="72" fill="#000000" font-size="5px" font-weight="bold" font-family="'Helvetica Neue', Helvetica, Arial-Unicode, Arial, Sans-serif">from the Noun Project</text></svg>