<svg width="70" height="70" xmlns="http://www.w3.org/2000/svg">
 <style type="text/css">.st0{stroke:#2A3D4F;stroke-width:2;stroke-miterlimit:10;}
	.st1{stroke:#FCCB4F;stroke-width:2;stroke-miterlimit:10;}</style>

 <g>
  <title>background</title>
  <rect fill="none" id="canvas_background" height="72" width="72" y="-1" x="-1"/>
 </g>
 <g>
  <title>Layer 1</title>
  <g id="svg_1">
   <g id="svg_2">
    <path id="svg_3" d="m47.99797,59.00203l-26,0c-2.2,0 -4,-1.8 -4,-4l0,-40c0,-2.2 1.8,-4 4,-4l22.4,0l7.6,7.5l0,36.5c0,2.2 -1.8,4 -4,4zm-26,-46c-1.1,0 -2,0.9 -2,2l0,40c0,1.1 0.9,2 2,2l26,0c1.1,0 2,-0.9 2,-2l0,-35.7l-6.5,-6.3l-21.5,0z"/>
   </g>
   <g id="svg_4">
    <path id="svg_5" d="m50.99797,20.00203l-7,0c-0.6,0 -1,-0.4 -1,-1l0,-7c0,-0.4 0.2,-0.8 0.6,-0.9c0.4,-0.2 0.8,-0.1 1.1,0.2l7,7c0.3,0.3 0.4,0.7 0.2,1.1s-0.5,0.6 -0.9,0.6zm-6,-2l3.6,0l-3.6,-3.6l0,3.6z"/>
   </g>
   <g id="svg_6">
    <path id="svg_7" d="m34.99797,29.00203c-2.2,0 -4,-1.8 -4,-4s1.8,-4 4,-4s4,1.8 4,4s-1.8,4 -4,4zm0,-6c-1.1,0 -2,0.9 -2,2s0.9,2 2,2s2,-0.9 2,-2s-0.9,-2 -2,-2z"/>
   </g>
   <g id="svg_8">
    <path id="svg_9" d="m41.99797,36.00203l-14,0c-0.6,0 -1,-0.4 -1,-1c0,-4.4 3.6,-8 8,-8s8,3.6 8,8c0,0.6 -0.4,1 -1,1zm-12.9,-2l11.8,0c-0.5,-2.8 -2.9,-5 -5.9,-5s-5.4,2.2 -5.9,5z"/>
   </g>
   <g id="svg_10">
    <path id="svg_11" d="m44.99797,54.00203l-20,0c-0.6,0 -1,-0.4 -1,-1s0.4,-1 1,-1l20,0c0.6,0 1,0.4 1,1s-0.4,1 -1,1z"/>
   </g>
   <g id="svg_12">
    <path id="svg_13" d="m44.99797,48.00203l-20,0c-0.6,0 -1,-0.4 -1,-1s0.4,-1 1,-1l20,0c0.6,0 1,0.4 1,1s-0.4,1 -1,1z"/>
   </g>
   <g id="svg_14">
    <path id="svg_15" d="m39.99797,42.00203l-10,0c-0.6,0 -1,-0.4 -1,-1c0,-0.6 0.4,-1 1,-1l10,0c0.6,0 1,0.4 1,1c0,0.6 -0.4,1 -1,1z"/>
   </g>
  </g>
 </g>
</svg>
