<svg xmlns:dc="http://purl.org/dc/elements/1.1/" xmlns:cc="http://creativecommons.org/ns#" xmlns:rdf="http://www.w3.org/1999/02/22-rdf-syntax-ns#" xmlns:svg="http://www.w3.org/2000/svg" xmlns="http://www.w3.org/2000/svg" xmlns:sodipodi="http://sodipodi.sourceforge.net/DTD/sodipodi-0.dtd" xmlns:inkscape="http://www.inkscape.org/namespaces/inkscape" version="1.1" x="0px" y="0px" viewBox="0 0 100 125"><g transform="translate(0,-952.36218)"><path style="text-indent:0;text-transform:none;direction:ltr;block-progression:tb;baseline-shift:baseline;color:#000000;enable-background:accumulate;" d="m 18,957.36215 c -1.0472,10e-5 -1.9999,0.95283 -2,2 l 0,86.00005 c 0,0.9868 0.8983,1.997 2,2 l 64,0 c 1.0472,-10e-5 1.9999,-0.9528 2,-2 l 0,-72.00005 c 0,-0.52204 -0.2225,-1.03918 -0.5938,-1.40625 l -14,-14 C 69.0391,957.58468 68.522,957.36615 68,957.36215 l -50,0 z m 2,4 46,0 0,12 c 0.013,0.92829 0.7847,1.998 2,2 l 12,0 0,68.00005 -60,0 0,-82.00005 z m 50,2.84375 7.1562,7.15625 -7.1562,0 0,-7.15625 z m -20,11.15625 c -3.8423,0 -7,3.15766 -7,6.99996 0,3.8423 3.1577,7 7,7 3.8423,0 7,-3.1577 7,-7 0,-3.8423 -3.1577,-6.99996 -7,-6.99996 z m 0,3.99996 c 1.6805,0 3,1.3195 3,3 0,1.6805 -1.3195,3 -3,3 -1.6805,0 -3,-1.3195 -3,-3 0,-1.6805 1.3195,-3 3,-3 z m 0,12 c -2.9,-10e-5 -6.4185,0.7874 -9.4375,2.6563 -3.019,1.869 -5.5625,5.0818 -5.5625,9.34369 a 2.0002,2.0002 0 0 0 2,2.0001 l 26,0 a 2.0002,2.0002 0 0 0 2,-2.0001 c 0,-4.26189 -2.5435,-7.47469 -5.5625,-9.34369 -3.019,-1.8689 -6.5375,-2.6564 -9.4375,-2.6563 z m 0,4 c 2.1,0 5.0815,0.6814 7.3125,2.0625 1.6417,1.0163 2.8777,2.2591 3.4063,3.93749 l -21.4376,0 c 0.5284,-1.67839 1.7646,-2.92119 3.4063,-3.93749 2.231,-1.3811 5.2125,-2.0625 7.3125,-2.0625 z m -20,16.00009 c -1.1046,0 -2,0.8954 -2,2 0,1.1046 0.8954,2 2,2 l 40,0 c 1.1046,0 2,-0.8954 2,-2 0,-1.1046 -0.8954,-2 -2,-2 l -40,0 z m 0,10 c -1.1046,0 -2,0.8954 -2,2 0,1.1046 0.8954,2 2,2 l 40,0 c 1.1046,0 2,-0.8954 2,-2 0,-1.1046 -0.8954,-2 -2,-2 l -40,0 z m 0,10 c -1.1046,0 -2,0.8954 -2,2 0,1.1046 0.8954,2 2,2 l 40,0 c 1.1046,0 2,-0.8954 2,-2 0,-1.1046 -0.8954,-2 -2,-2 l -40,0 z" fill="#000000" fill-opacity="1" stroke="none" marker="none" visibility="visible" display="inline" overflow="visible"/></g><text x="0" y="115" fill="#000000" font-size="5px" font-weight="bold" font-family="'Helvetica Neue', Helvetica, Arial-Unicode, Arial, Sans-serif">Created by unlimicon</text><text x="0" y="120" fill="#000000" font-size="5px" font-weight="bold" font-family="'Helvetica Neue', Helvetica, Arial-Unicode, Arial, Sans-serif">from the Noun Project</text></svg>